%TF.GenerationSoftware,KiCad,Pcbnew,9.0.2*%
%TF.CreationDate,2025-05-24T10:18:39-07:00*%
%TF.ProjectId,sensor_eval_brd,73656e73-6f72-45f6-9576-616c5f627264,rev?*%
%TF.SameCoordinates,Original*%
%TF.FileFunction,Legend,Top*%
%TF.FilePolarity,Positive*%
%FSLAX46Y46*%
G04 Gerber Fmt 4.6, Leading zero omitted, Abs format (unit mm)*
G04 Created by KiCad (PCBNEW 9.0.2) date 2025-05-24 10:18:39*
%MOMM*%
%LPD*%
G01*
G04 APERTURE LIST*
%ADD10C,0.150000*%
%ADD11C,0.177800*%
%ADD12C,0.120000*%
G04 APERTURE END LIST*
D10*
X165033560Y-100279200D02*
X165176417Y-100326819D01*
X165176417Y-100326819D02*
X165414512Y-100326819D01*
X165414512Y-100326819D02*
X165509750Y-100279200D01*
X165509750Y-100279200D02*
X165557369Y-100231580D01*
X165557369Y-100231580D02*
X165604988Y-100136342D01*
X165604988Y-100136342D02*
X165604988Y-100041104D01*
X165604988Y-100041104D02*
X165557369Y-99945866D01*
X165557369Y-99945866D02*
X165509750Y-99898247D01*
X165509750Y-99898247D02*
X165414512Y-99850628D01*
X165414512Y-99850628D02*
X165224036Y-99803009D01*
X165224036Y-99803009D02*
X165128798Y-99755390D01*
X165128798Y-99755390D02*
X165081179Y-99707771D01*
X165081179Y-99707771D02*
X165033560Y-99612533D01*
X165033560Y-99612533D02*
X165033560Y-99517295D01*
X165033560Y-99517295D02*
X165081179Y-99422057D01*
X165081179Y-99422057D02*
X165128798Y-99374438D01*
X165128798Y-99374438D02*
X165224036Y-99326819D01*
X165224036Y-99326819D02*
X165462131Y-99326819D01*
X165462131Y-99326819D02*
X165604988Y-99374438D01*
X166604988Y-100231580D02*
X166557369Y-100279200D01*
X166557369Y-100279200D02*
X166414512Y-100326819D01*
X166414512Y-100326819D02*
X166319274Y-100326819D01*
X166319274Y-100326819D02*
X166176417Y-100279200D01*
X166176417Y-100279200D02*
X166081179Y-100183961D01*
X166081179Y-100183961D02*
X166033560Y-100088723D01*
X166033560Y-100088723D02*
X165985941Y-99898247D01*
X165985941Y-99898247D02*
X165985941Y-99755390D01*
X165985941Y-99755390D02*
X166033560Y-99564914D01*
X166033560Y-99564914D02*
X166081179Y-99469676D01*
X166081179Y-99469676D02*
X166176417Y-99374438D01*
X166176417Y-99374438D02*
X166319274Y-99326819D01*
X166319274Y-99326819D02*
X166414512Y-99326819D01*
X166414512Y-99326819D02*
X166557369Y-99374438D01*
X166557369Y-99374438D02*
X166604988Y-99422057D01*
X167509750Y-100326819D02*
X167033560Y-100326819D01*
X167033560Y-100326819D02*
X167033560Y-99326819D01*
X164906560Y-95605600D02*
X165049417Y-95653219D01*
X165049417Y-95653219D02*
X165287512Y-95653219D01*
X165287512Y-95653219D02*
X165382750Y-95605600D01*
X165382750Y-95605600D02*
X165430369Y-95557980D01*
X165430369Y-95557980D02*
X165477988Y-95462742D01*
X165477988Y-95462742D02*
X165477988Y-95367504D01*
X165477988Y-95367504D02*
X165430369Y-95272266D01*
X165430369Y-95272266D02*
X165382750Y-95224647D01*
X165382750Y-95224647D02*
X165287512Y-95177028D01*
X165287512Y-95177028D02*
X165097036Y-95129409D01*
X165097036Y-95129409D02*
X165001798Y-95081790D01*
X165001798Y-95081790D02*
X164954179Y-95034171D01*
X164954179Y-95034171D02*
X164906560Y-94938933D01*
X164906560Y-94938933D02*
X164906560Y-94843695D01*
X164906560Y-94843695D02*
X164954179Y-94748457D01*
X164954179Y-94748457D02*
X165001798Y-94700838D01*
X165001798Y-94700838D02*
X165097036Y-94653219D01*
X165097036Y-94653219D02*
X165335131Y-94653219D01*
X165335131Y-94653219D02*
X165477988Y-94700838D01*
X165906560Y-95653219D02*
X165906560Y-94653219D01*
X165906560Y-94653219D02*
X166144655Y-94653219D01*
X166144655Y-94653219D02*
X166287512Y-94700838D01*
X166287512Y-94700838D02*
X166382750Y-94796076D01*
X166382750Y-94796076D02*
X166430369Y-94891314D01*
X166430369Y-94891314D02*
X166477988Y-95081790D01*
X166477988Y-95081790D02*
X166477988Y-95224647D01*
X166477988Y-95224647D02*
X166430369Y-95415123D01*
X166430369Y-95415123D02*
X166382750Y-95510361D01*
X166382750Y-95510361D02*
X166287512Y-95605600D01*
X166287512Y-95605600D02*
X166144655Y-95653219D01*
X166144655Y-95653219D02*
X165906560Y-95653219D01*
X166858941Y-95367504D02*
X167335131Y-95367504D01*
X166763703Y-95653219D02*
X167097036Y-94653219D01*
X167097036Y-94653219D02*
X167430369Y-95653219D01*
D11*
X137899249Y-110301010D02*
X138042106Y-110348629D01*
X138042106Y-110348629D02*
X138280201Y-110348629D01*
X138280201Y-110348629D02*
X138375439Y-110301010D01*
X138375439Y-110301010D02*
X138423058Y-110253390D01*
X138423058Y-110253390D02*
X138470677Y-110158152D01*
X138470677Y-110158152D02*
X138470677Y-110062914D01*
X138470677Y-110062914D02*
X138423058Y-109967676D01*
X138423058Y-109967676D02*
X138375439Y-109920057D01*
X138375439Y-109920057D02*
X138280201Y-109872438D01*
X138280201Y-109872438D02*
X138089725Y-109824819D01*
X138089725Y-109824819D02*
X137994487Y-109777200D01*
X137994487Y-109777200D02*
X137946868Y-109729581D01*
X137946868Y-109729581D02*
X137899249Y-109634343D01*
X137899249Y-109634343D02*
X137899249Y-109539105D01*
X137899249Y-109539105D02*
X137946868Y-109443867D01*
X137946868Y-109443867D02*
X137994487Y-109396248D01*
X137994487Y-109396248D02*
X138089725Y-109348629D01*
X138089725Y-109348629D02*
X138327820Y-109348629D01*
X138327820Y-109348629D02*
X138470677Y-109396248D01*
X139470677Y-110253390D02*
X139423058Y-110301010D01*
X139423058Y-110301010D02*
X139280201Y-110348629D01*
X139280201Y-110348629D02*
X139184963Y-110348629D01*
X139184963Y-110348629D02*
X139042106Y-110301010D01*
X139042106Y-110301010D02*
X138946868Y-110205771D01*
X138946868Y-110205771D02*
X138899249Y-110110533D01*
X138899249Y-110110533D02*
X138851630Y-109920057D01*
X138851630Y-109920057D02*
X138851630Y-109777200D01*
X138851630Y-109777200D02*
X138899249Y-109586724D01*
X138899249Y-109586724D02*
X138946868Y-109491486D01*
X138946868Y-109491486D02*
X139042106Y-109396248D01*
X139042106Y-109396248D02*
X139184963Y-109348629D01*
X139184963Y-109348629D02*
X139280201Y-109348629D01*
X139280201Y-109348629D02*
X139423058Y-109396248D01*
X139423058Y-109396248D02*
X139470677Y-109443867D01*
X139899249Y-110348629D02*
X139899249Y-109348629D01*
X139899249Y-109348629D02*
X140137344Y-109348629D01*
X140137344Y-109348629D02*
X140280201Y-109396248D01*
X140280201Y-109396248D02*
X140375439Y-109491486D01*
X140375439Y-109491486D02*
X140423058Y-109586724D01*
X140423058Y-109586724D02*
X140470677Y-109777200D01*
X140470677Y-109777200D02*
X140470677Y-109920057D01*
X140470677Y-109920057D02*
X140423058Y-110110533D01*
X140423058Y-110110533D02*
X140375439Y-110205771D01*
X140375439Y-110205771D02*
X140280201Y-110301010D01*
X140280201Y-110301010D02*
X140137344Y-110348629D01*
X140137344Y-110348629D02*
X139899249Y-110348629D01*
X140899249Y-109967676D02*
X141661154Y-109967676D01*
X142565915Y-109681962D02*
X142565915Y-110348629D01*
X142327820Y-109301010D02*
X142089725Y-110015295D01*
X142089725Y-110015295D02*
X142708772Y-110015295D01*
X143280201Y-109348629D02*
X143375439Y-109348629D01*
X143375439Y-109348629D02*
X143470677Y-109396248D01*
X143470677Y-109396248D02*
X143518296Y-109443867D01*
X143518296Y-109443867D02*
X143565915Y-109539105D01*
X143565915Y-109539105D02*
X143613534Y-109729581D01*
X143613534Y-109729581D02*
X143613534Y-109967676D01*
X143613534Y-109967676D02*
X143565915Y-110158152D01*
X143565915Y-110158152D02*
X143518296Y-110253390D01*
X143518296Y-110253390D02*
X143470677Y-110301010D01*
X143470677Y-110301010D02*
X143375439Y-110348629D01*
X143375439Y-110348629D02*
X143280201Y-110348629D01*
X143280201Y-110348629D02*
X143184963Y-110301010D01*
X143184963Y-110301010D02*
X143137344Y-110253390D01*
X143137344Y-110253390D02*
X143089725Y-110158152D01*
X143089725Y-110158152D02*
X143042106Y-109967676D01*
X143042106Y-109967676D02*
X143042106Y-109729581D01*
X143042106Y-109729581D02*
X143089725Y-109539105D01*
X143089725Y-109539105D02*
X143137344Y-109443867D01*
X143137344Y-109443867D02*
X143184963Y-109396248D01*
X143184963Y-109396248D02*
X143280201Y-109348629D01*
X144756392Y-110301010D02*
X144899249Y-110348629D01*
X144899249Y-110348629D02*
X145137344Y-110348629D01*
X145137344Y-110348629D02*
X145232582Y-110301010D01*
X145232582Y-110301010D02*
X145280201Y-110253390D01*
X145280201Y-110253390D02*
X145327820Y-110158152D01*
X145327820Y-110158152D02*
X145327820Y-110062914D01*
X145327820Y-110062914D02*
X145280201Y-109967676D01*
X145280201Y-109967676D02*
X145232582Y-109920057D01*
X145232582Y-109920057D02*
X145137344Y-109872438D01*
X145137344Y-109872438D02*
X144946868Y-109824819D01*
X144946868Y-109824819D02*
X144851630Y-109777200D01*
X144851630Y-109777200D02*
X144804011Y-109729581D01*
X144804011Y-109729581D02*
X144756392Y-109634343D01*
X144756392Y-109634343D02*
X144756392Y-109539105D01*
X144756392Y-109539105D02*
X144804011Y-109443867D01*
X144804011Y-109443867D02*
X144851630Y-109396248D01*
X144851630Y-109396248D02*
X144946868Y-109348629D01*
X144946868Y-109348629D02*
X145184963Y-109348629D01*
X145184963Y-109348629D02*
X145327820Y-109396248D01*
X146137344Y-110301010D02*
X146042106Y-110348629D01*
X146042106Y-110348629D02*
X145851630Y-110348629D01*
X145851630Y-110348629D02*
X145756392Y-110301010D01*
X145756392Y-110301010D02*
X145708773Y-110205771D01*
X145708773Y-110205771D02*
X145708773Y-109824819D01*
X145708773Y-109824819D02*
X145756392Y-109729581D01*
X145756392Y-109729581D02*
X145851630Y-109681962D01*
X145851630Y-109681962D02*
X146042106Y-109681962D01*
X146042106Y-109681962D02*
X146137344Y-109729581D01*
X146137344Y-109729581D02*
X146184963Y-109824819D01*
X146184963Y-109824819D02*
X146184963Y-109920057D01*
X146184963Y-109920057D02*
X145708773Y-110015295D01*
X146613535Y-109681962D02*
X146613535Y-110348629D01*
X146613535Y-109777200D02*
X146661154Y-109729581D01*
X146661154Y-109729581D02*
X146756392Y-109681962D01*
X146756392Y-109681962D02*
X146899249Y-109681962D01*
X146899249Y-109681962D02*
X146994487Y-109729581D01*
X146994487Y-109729581D02*
X147042106Y-109824819D01*
X147042106Y-109824819D02*
X147042106Y-110348629D01*
X147470678Y-110301010D02*
X147565916Y-110348629D01*
X147565916Y-110348629D02*
X147756392Y-110348629D01*
X147756392Y-110348629D02*
X147851630Y-110301010D01*
X147851630Y-110301010D02*
X147899249Y-110205771D01*
X147899249Y-110205771D02*
X147899249Y-110158152D01*
X147899249Y-110158152D02*
X147851630Y-110062914D01*
X147851630Y-110062914D02*
X147756392Y-110015295D01*
X147756392Y-110015295D02*
X147613535Y-110015295D01*
X147613535Y-110015295D02*
X147518297Y-109967676D01*
X147518297Y-109967676D02*
X147470678Y-109872438D01*
X147470678Y-109872438D02*
X147470678Y-109824819D01*
X147470678Y-109824819D02*
X147518297Y-109729581D01*
X147518297Y-109729581D02*
X147613535Y-109681962D01*
X147613535Y-109681962D02*
X147756392Y-109681962D01*
X147756392Y-109681962D02*
X147851630Y-109729581D01*
X148470678Y-110348629D02*
X148375440Y-110301010D01*
X148375440Y-110301010D02*
X148327821Y-110253390D01*
X148327821Y-110253390D02*
X148280202Y-110158152D01*
X148280202Y-110158152D02*
X148280202Y-109872438D01*
X148280202Y-109872438D02*
X148327821Y-109777200D01*
X148327821Y-109777200D02*
X148375440Y-109729581D01*
X148375440Y-109729581D02*
X148470678Y-109681962D01*
X148470678Y-109681962D02*
X148613535Y-109681962D01*
X148613535Y-109681962D02*
X148708773Y-109729581D01*
X148708773Y-109729581D02*
X148756392Y-109777200D01*
X148756392Y-109777200D02*
X148804011Y-109872438D01*
X148804011Y-109872438D02*
X148804011Y-110158152D01*
X148804011Y-110158152D02*
X148756392Y-110253390D01*
X148756392Y-110253390D02*
X148708773Y-110301010D01*
X148708773Y-110301010D02*
X148613535Y-110348629D01*
X148613535Y-110348629D02*
X148470678Y-110348629D01*
X149232583Y-110348629D02*
X149232583Y-109681962D01*
X149232583Y-109872438D02*
X149280202Y-109777200D01*
X149280202Y-109777200D02*
X149327821Y-109729581D01*
X149327821Y-109729581D02*
X149423059Y-109681962D01*
X149423059Y-109681962D02*
X149518297Y-109681962D01*
X137946868Y-111434763D02*
X138280201Y-111434763D01*
X138423058Y-111958573D02*
X137946868Y-111958573D01*
X137946868Y-111958573D02*
X137946868Y-110958573D01*
X137946868Y-110958573D02*
X138423058Y-110958573D01*
X138756392Y-111291906D02*
X138994487Y-111958573D01*
X138994487Y-111958573D02*
X139232582Y-111291906D01*
X140042106Y-111958573D02*
X140042106Y-111434763D01*
X140042106Y-111434763D02*
X139994487Y-111339525D01*
X139994487Y-111339525D02*
X139899249Y-111291906D01*
X139899249Y-111291906D02*
X139708773Y-111291906D01*
X139708773Y-111291906D02*
X139613535Y-111339525D01*
X140042106Y-111910954D02*
X139946868Y-111958573D01*
X139946868Y-111958573D02*
X139708773Y-111958573D01*
X139708773Y-111958573D02*
X139613535Y-111910954D01*
X139613535Y-111910954D02*
X139565916Y-111815715D01*
X139565916Y-111815715D02*
X139565916Y-111720477D01*
X139565916Y-111720477D02*
X139613535Y-111625239D01*
X139613535Y-111625239D02*
X139708773Y-111577620D01*
X139708773Y-111577620D02*
X139946868Y-111577620D01*
X139946868Y-111577620D02*
X140042106Y-111530001D01*
X140661154Y-111958573D02*
X140565916Y-111910954D01*
X140565916Y-111910954D02*
X140518297Y-111815715D01*
X140518297Y-111815715D02*
X140518297Y-110958573D01*
X142137345Y-111434763D02*
X142280202Y-111482382D01*
X142280202Y-111482382D02*
X142327821Y-111530001D01*
X142327821Y-111530001D02*
X142375440Y-111625239D01*
X142375440Y-111625239D02*
X142375440Y-111768096D01*
X142375440Y-111768096D02*
X142327821Y-111863334D01*
X142327821Y-111863334D02*
X142280202Y-111910954D01*
X142280202Y-111910954D02*
X142184964Y-111958573D01*
X142184964Y-111958573D02*
X141804012Y-111958573D01*
X141804012Y-111958573D02*
X141804012Y-110958573D01*
X141804012Y-110958573D02*
X142137345Y-110958573D01*
X142137345Y-110958573D02*
X142232583Y-111006192D01*
X142232583Y-111006192D02*
X142280202Y-111053811D01*
X142280202Y-111053811D02*
X142327821Y-111149049D01*
X142327821Y-111149049D02*
X142327821Y-111244287D01*
X142327821Y-111244287D02*
X142280202Y-111339525D01*
X142280202Y-111339525D02*
X142232583Y-111387144D01*
X142232583Y-111387144D02*
X142137345Y-111434763D01*
X142137345Y-111434763D02*
X141804012Y-111434763D01*
X142946869Y-111958573D02*
X142851631Y-111910954D01*
X142851631Y-111910954D02*
X142804012Y-111863334D01*
X142804012Y-111863334D02*
X142756393Y-111768096D01*
X142756393Y-111768096D02*
X142756393Y-111482382D01*
X142756393Y-111482382D02*
X142804012Y-111387144D01*
X142804012Y-111387144D02*
X142851631Y-111339525D01*
X142851631Y-111339525D02*
X142946869Y-111291906D01*
X142946869Y-111291906D02*
X143089726Y-111291906D01*
X143089726Y-111291906D02*
X143184964Y-111339525D01*
X143184964Y-111339525D02*
X143232583Y-111387144D01*
X143232583Y-111387144D02*
X143280202Y-111482382D01*
X143280202Y-111482382D02*
X143280202Y-111768096D01*
X143280202Y-111768096D02*
X143232583Y-111863334D01*
X143232583Y-111863334D02*
X143184964Y-111910954D01*
X143184964Y-111910954D02*
X143089726Y-111958573D01*
X143089726Y-111958573D02*
X142946869Y-111958573D01*
X144137345Y-111958573D02*
X144137345Y-111434763D01*
X144137345Y-111434763D02*
X144089726Y-111339525D01*
X144089726Y-111339525D02*
X143994488Y-111291906D01*
X143994488Y-111291906D02*
X143804012Y-111291906D01*
X143804012Y-111291906D02*
X143708774Y-111339525D01*
X144137345Y-111910954D02*
X144042107Y-111958573D01*
X144042107Y-111958573D02*
X143804012Y-111958573D01*
X143804012Y-111958573D02*
X143708774Y-111910954D01*
X143708774Y-111910954D02*
X143661155Y-111815715D01*
X143661155Y-111815715D02*
X143661155Y-111720477D01*
X143661155Y-111720477D02*
X143708774Y-111625239D01*
X143708774Y-111625239D02*
X143804012Y-111577620D01*
X143804012Y-111577620D02*
X144042107Y-111577620D01*
X144042107Y-111577620D02*
X144137345Y-111530001D01*
X144613536Y-111958573D02*
X144613536Y-111291906D01*
X144613536Y-111482382D02*
X144661155Y-111387144D01*
X144661155Y-111387144D02*
X144708774Y-111339525D01*
X144708774Y-111339525D02*
X144804012Y-111291906D01*
X144804012Y-111291906D02*
X144899250Y-111291906D01*
X145661155Y-111958573D02*
X145661155Y-110958573D01*
X145661155Y-111910954D02*
X145565917Y-111958573D01*
X145565917Y-111958573D02*
X145375441Y-111958573D01*
X145375441Y-111958573D02*
X145280203Y-111910954D01*
X145280203Y-111910954D02*
X145232584Y-111863334D01*
X145232584Y-111863334D02*
X145184965Y-111768096D01*
X145184965Y-111768096D02*
X145184965Y-111482382D01*
X145184965Y-111482382D02*
X145232584Y-111387144D01*
X145232584Y-111387144D02*
X145280203Y-111339525D01*
X145280203Y-111339525D02*
X145375441Y-111291906D01*
X145375441Y-111291906D02*
X145565917Y-111291906D01*
X145565917Y-111291906D02*
X145661155Y-111339525D01*
D10*
X164836722Y-89852619D02*
X165170055Y-90852619D01*
X165170055Y-90852619D02*
X165503388Y-89852619D01*
X166408150Y-90757380D02*
X166360531Y-90805000D01*
X166360531Y-90805000D02*
X166217674Y-90852619D01*
X166217674Y-90852619D02*
X166122436Y-90852619D01*
X166122436Y-90852619D02*
X165979579Y-90805000D01*
X165979579Y-90805000D02*
X165884341Y-90709761D01*
X165884341Y-90709761D02*
X165836722Y-90614523D01*
X165836722Y-90614523D02*
X165789103Y-90424047D01*
X165789103Y-90424047D02*
X165789103Y-90281190D01*
X165789103Y-90281190D02*
X165836722Y-90090714D01*
X165836722Y-90090714D02*
X165884341Y-89995476D01*
X165884341Y-89995476D02*
X165979579Y-89900238D01*
X165979579Y-89900238D02*
X166122436Y-89852619D01*
X166122436Y-89852619D02*
X166217674Y-89852619D01*
X166217674Y-89852619D02*
X166360531Y-89900238D01*
X166360531Y-89900238D02*
X166408150Y-89947857D01*
X167408150Y-90757380D02*
X167360531Y-90805000D01*
X167360531Y-90805000D02*
X167217674Y-90852619D01*
X167217674Y-90852619D02*
X167122436Y-90852619D01*
X167122436Y-90852619D02*
X166979579Y-90805000D01*
X166979579Y-90805000D02*
X166884341Y-90709761D01*
X166884341Y-90709761D02*
X166836722Y-90614523D01*
X166836722Y-90614523D02*
X166789103Y-90424047D01*
X166789103Y-90424047D02*
X166789103Y-90281190D01*
X166789103Y-90281190D02*
X166836722Y-90090714D01*
X166836722Y-90090714D02*
X166884341Y-89995476D01*
X166884341Y-89995476D02*
X166979579Y-89900238D01*
X166979579Y-89900238D02*
X167122436Y-89852619D01*
X167122436Y-89852619D02*
X167217674Y-89852619D01*
X167217674Y-89852619D02*
X167360531Y-89900238D01*
X167360531Y-89900238D02*
X167408150Y-89947857D01*
X165325588Y-92414838D02*
X165230350Y-92367219D01*
X165230350Y-92367219D02*
X165087493Y-92367219D01*
X165087493Y-92367219D02*
X164944636Y-92414838D01*
X164944636Y-92414838D02*
X164849398Y-92510076D01*
X164849398Y-92510076D02*
X164801779Y-92605314D01*
X164801779Y-92605314D02*
X164754160Y-92795790D01*
X164754160Y-92795790D02*
X164754160Y-92938647D01*
X164754160Y-92938647D02*
X164801779Y-93129123D01*
X164801779Y-93129123D02*
X164849398Y-93224361D01*
X164849398Y-93224361D02*
X164944636Y-93319600D01*
X164944636Y-93319600D02*
X165087493Y-93367219D01*
X165087493Y-93367219D02*
X165182731Y-93367219D01*
X165182731Y-93367219D02*
X165325588Y-93319600D01*
X165325588Y-93319600D02*
X165373207Y-93271980D01*
X165373207Y-93271980D02*
X165373207Y-92938647D01*
X165373207Y-92938647D02*
X165182731Y-92938647D01*
X165801779Y-93367219D02*
X165801779Y-92367219D01*
X165801779Y-92367219D02*
X166373207Y-93367219D01*
X166373207Y-93367219D02*
X166373207Y-92367219D01*
X166849398Y-93367219D02*
X166849398Y-92367219D01*
X166849398Y-92367219D02*
X167087493Y-92367219D01*
X167087493Y-92367219D02*
X167230350Y-92414838D01*
X167230350Y-92414838D02*
X167325588Y-92510076D01*
X167325588Y-92510076D02*
X167373207Y-92605314D01*
X167373207Y-92605314D02*
X167420826Y-92795790D01*
X167420826Y-92795790D02*
X167420826Y-92938647D01*
X167420826Y-92938647D02*
X167373207Y-93129123D01*
X167373207Y-93129123D02*
X167325588Y-93224361D01*
X167325588Y-93224361D02*
X167230350Y-93319600D01*
X167230350Y-93319600D02*
X167087493Y-93367219D01*
X167087493Y-93367219D02*
X166849398Y-93367219D01*
X162227419Y-101030066D02*
X161751228Y-101363399D01*
X162227419Y-101601494D02*
X161227419Y-101601494D01*
X161227419Y-101601494D02*
X161227419Y-101220542D01*
X161227419Y-101220542D02*
X161275038Y-101125304D01*
X161275038Y-101125304D02*
X161322657Y-101077685D01*
X161322657Y-101077685D02*
X161417895Y-101030066D01*
X161417895Y-101030066D02*
X161560752Y-101030066D01*
X161560752Y-101030066D02*
X161655990Y-101077685D01*
X161655990Y-101077685D02*
X161703609Y-101125304D01*
X161703609Y-101125304D02*
X161751228Y-101220542D01*
X161751228Y-101220542D02*
X161751228Y-101601494D01*
X162227419Y-100077685D02*
X162227419Y-100649113D01*
X162227419Y-100363399D02*
X161227419Y-100363399D01*
X161227419Y-100363399D02*
X161370276Y-100458637D01*
X161370276Y-100458637D02*
X161465514Y-100553875D01*
X161465514Y-100553875D02*
X161513133Y-100649113D01*
X151971524Y-98266600D02*
X152114381Y-98314219D01*
X152114381Y-98314219D02*
X152352476Y-98314219D01*
X152352476Y-98314219D02*
X152447714Y-98266600D01*
X152447714Y-98266600D02*
X152495333Y-98218980D01*
X152495333Y-98218980D02*
X152542952Y-98123742D01*
X152542952Y-98123742D02*
X152542952Y-98028504D01*
X152542952Y-98028504D02*
X152495333Y-97933266D01*
X152495333Y-97933266D02*
X152447714Y-97885647D01*
X152447714Y-97885647D02*
X152352476Y-97838028D01*
X152352476Y-97838028D02*
X152162000Y-97790409D01*
X152162000Y-97790409D02*
X152066762Y-97742790D01*
X152066762Y-97742790D02*
X152019143Y-97695171D01*
X152019143Y-97695171D02*
X151971524Y-97599933D01*
X151971524Y-97599933D02*
X151971524Y-97504695D01*
X151971524Y-97504695D02*
X152019143Y-97409457D01*
X152019143Y-97409457D02*
X152066762Y-97361838D01*
X152066762Y-97361838D02*
X152162000Y-97314219D01*
X152162000Y-97314219D02*
X152400095Y-97314219D01*
X152400095Y-97314219D02*
X152542952Y-97361838D01*
X153542952Y-98218980D02*
X153495333Y-98266600D01*
X153495333Y-98266600D02*
X153352476Y-98314219D01*
X153352476Y-98314219D02*
X153257238Y-98314219D01*
X153257238Y-98314219D02*
X153114381Y-98266600D01*
X153114381Y-98266600D02*
X153019143Y-98171361D01*
X153019143Y-98171361D02*
X152971524Y-98076123D01*
X152971524Y-98076123D02*
X152923905Y-97885647D01*
X152923905Y-97885647D02*
X152923905Y-97742790D01*
X152923905Y-97742790D02*
X152971524Y-97552314D01*
X152971524Y-97552314D02*
X153019143Y-97457076D01*
X153019143Y-97457076D02*
X153114381Y-97361838D01*
X153114381Y-97361838D02*
X153257238Y-97314219D01*
X153257238Y-97314219D02*
X153352476Y-97314219D01*
X153352476Y-97314219D02*
X153495333Y-97361838D01*
X153495333Y-97361838D02*
X153542952Y-97409457D01*
X154447714Y-98314219D02*
X153971524Y-98314219D01*
X153971524Y-98314219D02*
X153971524Y-97314219D01*
X161313019Y-95376566D02*
X160836828Y-95709899D01*
X161313019Y-95947994D02*
X160313019Y-95947994D01*
X160313019Y-95947994D02*
X160313019Y-95567042D01*
X160313019Y-95567042D02*
X160360638Y-95471804D01*
X160360638Y-95471804D02*
X160408257Y-95424185D01*
X160408257Y-95424185D02*
X160503495Y-95376566D01*
X160503495Y-95376566D02*
X160646352Y-95376566D01*
X160646352Y-95376566D02*
X160741590Y-95424185D01*
X160741590Y-95424185D02*
X160789209Y-95471804D01*
X160789209Y-95471804D02*
X160836828Y-95567042D01*
X160836828Y-95567042D02*
X160836828Y-95947994D01*
X160408257Y-94995613D02*
X160360638Y-94947994D01*
X160360638Y-94947994D02*
X160313019Y-94852756D01*
X160313019Y-94852756D02*
X160313019Y-94614661D01*
X160313019Y-94614661D02*
X160360638Y-94519423D01*
X160360638Y-94519423D02*
X160408257Y-94471804D01*
X160408257Y-94471804D02*
X160503495Y-94424185D01*
X160503495Y-94424185D02*
X160598733Y-94424185D01*
X160598733Y-94424185D02*
X160741590Y-94471804D01*
X160741590Y-94471804D02*
X161313019Y-95043232D01*
X161313019Y-95043232D02*
X161313019Y-94424185D01*
X154801980Y-83091466D02*
X154849600Y-83139085D01*
X154849600Y-83139085D02*
X154897219Y-83281942D01*
X154897219Y-83281942D02*
X154897219Y-83377180D01*
X154897219Y-83377180D02*
X154849600Y-83520037D01*
X154849600Y-83520037D02*
X154754361Y-83615275D01*
X154754361Y-83615275D02*
X154659123Y-83662894D01*
X154659123Y-83662894D02*
X154468647Y-83710513D01*
X154468647Y-83710513D02*
X154325790Y-83710513D01*
X154325790Y-83710513D02*
X154135314Y-83662894D01*
X154135314Y-83662894D02*
X154040076Y-83615275D01*
X154040076Y-83615275D02*
X153944838Y-83520037D01*
X153944838Y-83520037D02*
X153897219Y-83377180D01*
X153897219Y-83377180D02*
X153897219Y-83281942D01*
X153897219Y-83281942D02*
X153944838Y-83139085D01*
X153944838Y-83139085D02*
X153992457Y-83091466D01*
X153992457Y-82710513D02*
X153944838Y-82662894D01*
X153944838Y-82662894D02*
X153897219Y-82567656D01*
X153897219Y-82567656D02*
X153897219Y-82329561D01*
X153897219Y-82329561D02*
X153944838Y-82234323D01*
X153944838Y-82234323D02*
X153992457Y-82186704D01*
X153992457Y-82186704D02*
X154087695Y-82139085D01*
X154087695Y-82139085D02*
X154182933Y-82139085D01*
X154182933Y-82139085D02*
X154325790Y-82186704D01*
X154325790Y-82186704D02*
X154897219Y-82758132D01*
X154897219Y-82758132D02*
X154897219Y-82139085D01*
X167804895Y-108964038D02*
X167709657Y-108916419D01*
X167709657Y-108916419D02*
X167566800Y-108916419D01*
X167566800Y-108916419D02*
X167423943Y-108964038D01*
X167423943Y-108964038D02*
X167328705Y-109059276D01*
X167328705Y-109059276D02*
X167281086Y-109154514D01*
X167281086Y-109154514D02*
X167233467Y-109344990D01*
X167233467Y-109344990D02*
X167233467Y-109487847D01*
X167233467Y-109487847D02*
X167281086Y-109678323D01*
X167281086Y-109678323D02*
X167328705Y-109773561D01*
X167328705Y-109773561D02*
X167423943Y-109868800D01*
X167423943Y-109868800D02*
X167566800Y-109916419D01*
X167566800Y-109916419D02*
X167662038Y-109916419D01*
X167662038Y-109916419D02*
X167804895Y-109868800D01*
X167804895Y-109868800D02*
X167852514Y-109821180D01*
X167852514Y-109821180D02*
X167852514Y-109487847D01*
X167852514Y-109487847D02*
X167662038Y-109487847D01*
X168281086Y-109916419D02*
X168281086Y-108916419D01*
X168281086Y-108916419D02*
X168852514Y-109916419D01*
X168852514Y-109916419D02*
X168852514Y-108916419D01*
X169328705Y-109916419D02*
X169328705Y-108916419D01*
X169328705Y-108916419D02*
X169566800Y-108916419D01*
X169566800Y-108916419D02*
X169709657Y-108964038D01*
X169709657Y-108964038D02*
X169804895Y-109059276D01*
X169804895Y-109059276D02*
X169852514Y-109154514D01*
X169852514Y-109154514D02*
X169900133Y-109344990D01*
X169900133Y-109344990D02*
X169900133Y-109487847D01*
X169900133Y-109487847D02*
X169852514Y-109678323D01*
X169852514Y-109678323D02*
X169804895Y-109773561D01*
X169804895Y-109773561D02*
X169709657Y-109868800D01*
X169709657Y-109868800D02*
X169566800Y-109916419D01*
X169566800Y-109916419D02*
X169328705Y-109916419D01*
X168431380Y-82996066D02*
X168479000Y-83043685D01*
X168479000Y-83043685D02*
X168526619Y-83186542D01*
X168526619Y-83186542D02*
X168526619Y-83281780D01*
X168526619Y-83281780D02*
X168479000Y-83424637D01*
X168479000Y-83424637D02*
X168383761Y-83519875D01*
X168383761Y-83519875D02*
X168288523Y-83567494D01*
X168288523Y-83567494D02*
X168098047Y-83615113D01*
X168098047Y-83615113D02*
X167955190Y-83615113D01*
X167955190Y-83615113D02*
X167764714Y-83567494D01*
X167764714Y-83567494D02*
X167669476Y-83519875D01*
X167669476Y-83519875D02*
X167574238Y-83424637D01*
X167574238Y-83424637D02*
X167526619Y-83281780D01*
X167526619Y-83281780D02*
X167526619Y-83186542D01*
X167526619Y-83186542D02*
X167574238Y-83043685D01*
X167574238Y-83043685D02*
X167621857Y-82996066D01*
X168526619Y-82043685D02*
X168526619Y-82615113D01*
X168526619Y-82329399D02*
X167526619Y-82329399D01*
X167526619Y-82329399D02*
X167669476Y-82424637D01*
X167669476Y-82424637D02*
X167764714Y-82519875D01*
X167764714Y-82519875D02*
X167812333Y-82615113D01*
X150131314Y-90226200D02*
X150274171Y-90273819D01*
X150274171Y-90273819D02*
X150512266Y-90273819D01*
X150512266Y-90273819D02*
X150607504Y-90226200D01*
X150607504Y-90226200D02*
X150655123Y-90178580D01*
X150655123Y-90178580D02*
X150702742Y-90083342D01*
X150702742Y-90083342D02*
X150702742Y-89988104D01*
X150702742Y-89988104D02*
X150655123Y-89892866D01*
X150655123Y-89892866D02*
X150607504Y-89845247D01*
X150607504Y-89845247D02*
X150512266Y-89797628D01*
X150512266Y-89797628D02*
X150321790Y-89750009D01*
X150321790Y-89750009D02*
X150226552Y-89702390D01*
X150226552Y-89702390D02*
X150178933Y-89654771D01*
X150178933Y-89654771D02*
X150131314Y-89559533D01*
X150131314Y-89559533D02*
X150131314Y-89464295D01*
X150131314Y-89464295D02*
X150178933Y-89369057D01*
X150178933Y-89369057D02*
X150226552Y-89321438D01*
X150226552Y-89321438D02*
X150321790Y-89273819D01*
X150321790Y-89273819D02*
X150559885Y-89273819D01*
X150559885Y-89273819D02*
X150702742Y-89321438D01*
X151131314Y-90273819D02*
X151131314Y-89273819D01*
X151131314Y-89273819D02*
X151369409Y-89273819D01*
X151369409Y-89273819D02*
X151512266Y-89321438D01*
X151512266Y-89321438D02*
X151607504Y-89416676D01*
X151607504Y-89416676D02*
X151655123Y-89511914D01*
X151655123Y-89511914D02*
X151702742Y-89702390D01*
X151702742Y-89702390D02*
X151702742Y-89845247D01*
X151702742Y-89845247D02*
X151655123Y-90035723D01*
X151655123Y-90035723D02*
X151607504Y-90130961D01*
X151607504Y-90130961D02*
X151512266Y-90226200D01*
X151512266Y-90226200D02*
X151369409Y-90273819D01*
X151369409Y-90273819D02*
X151131314Y-90273819D01*
X152083695Y-89988104D02*
X152559885Y-89988104D01*
X151988457Y-90273819D02*
X152321790Y-89273819D01*
X152321790Y-89273819D02*
X152655123Y-90273819D01*
X145113410Y-81117519D02*
X145732457Y-81117519D01*
X145732457Y-81117519D02*
X145399124Y-81498471D01*
X145399124Y-81498471D02*
X145541981Y-81498471D01*
X145541981Y-81498471D02*
X145637219Y-81546090D01*
X145637219Y-81546090D02*
X145684838Y-81593709D01*
X145684838Y-81593709D02*
X145732457Y-81688947D01*
X145732457Y-81688947D02*
X145732457Y-81927042D01*
X145732457Y-81927042D02*
X145684838Y-82022280D01*
X145684838Y-82022280D02*
X145637219Y-82069900D01*
X145637219Y-82069900D02*
X145541981Y-82117519D01*
X145541981Y-82117519D02*
X145256267Y-82117519D01*
X145256267Y-82117519D02*
X145161029Y-82069900D01*
X145161029Y-82069900D02*
X145113410Y-82022280D01*
X146161029Y-82022280D02*
X146208648Y-82069900D01*
X146208648Y-82069900D02*
X146161029Y-82117519D01*
X146161029Y-82117519D02*
X146113410Y-82069900D01*
X146113410Y-82069900D02*
X146161029Y-82022280D01*
X146161029Y-82022280D02*
X146161029Y-82117519D01*
X146541981Y-81117519D02*
X147161028Y-81117519D01*
X147161028Y-81117519D02*
X146827695Y-81498471D01*
X146827695Y-81498471D02*
X146970552Y-81498471D01*
X146970552Y-81498471D02*
X147065790Y-81546090D01*
X147065790Y-81546090D02*
X147113409Y-81593709D01*
X147113409Y-81593709D02*
X147161028Y-81688947D01*
X147161028Y-81688947D02*
X147161028Y-81927042D01*
X147161028Y-81927042D02*
X147113409Y-82022280D01*
X147113409Y-82022280D02*
X147065790Y-82069900D01*
X147065790Y-82069900D02*
X146970552Y-82117519D01*
X146970552Y-82117519D02*
X146684838Y-82117519D01*
X146684838Y-82117519D02*
X146589600Y-82069900D01*
X146589600Y-82069900D02*
X146541981Y-82022280D01*
X147446743Y-81117519D02*
X147780076Y-82117519D01*
X147780076Y-82117519D02*
X148113409Y-81117519D01*
X138300619Y-87659894D02*
X137300619Y-87659894D01*
X137300619Y-87659894D02*
X137300619Y-87421799D01*
X137300619Y-87421799D02*
X137348238Y-87278942D01*
X137348238Y-87278942D02*
X137443476Y-87183704D01*
X137443476Y-87183704D02*
X137538714Y-87136085D01*
X137538714Y-87136085D02*
X137729190Y-87088466D01*
X137729190Y-87088466D02*
X137872047Y-87088466D01*
X137872047Y-87088466D02*
X138062523Y-87136085D01*
X138062523Y-87136085D02*
X138157761Y-87183704D01*
X138157761Y-87183704D02*
X138253000Y-87278942D01*
X138253000Y-87278942D02*
X138300619Y-87421799D01*
X138300619Y-87421799D02*
X138300619Y-87659894D01*
X138300619Y-86136085D02*
X138300619Y-86707513D01*
X138300619Y-86421799D02*
X137300619Y-86421799D01*
X137300619Y-86421799D02*
X137443476Y-86517037D01*
X137443476Y-86517037D02*
X137538714Y-86612275D01*
X137538714Y-86612275D02*
X137586333Y-86707513D01*
X159933510Y-85205619D02*
X159933510Y-84205619D01*
X160981128Y-85110380D02*
X160933509Y-85158000D01*
X160933509Y-85158000D02*
X160790652Y-85205619D01*
X160790652Y-85205619D02*
X160695414Y-85205619D01*
X160695414Y-85205619D02*
X160552557Y-85158000D01*
X160552557Y-85158000D02*
X160457319Y-85062761D01*
X160457319Y-85062761D02*
X160409700Y-84967523D01*
X160409700Y-84967523D02*
X160362081Y-84777047D01*
X160362081Y-84777047D02*
X160362081Y-84634190D01*
X160362081Y-84634190D02*
X160409700Y-84443714D01*
X160409700Y-84443714D02*
X160457319Y-84348476D01*
X160457319Y-84348476D02*
X160552557Y-84253238D01*
X160552557Y-84253238D02*
X160695414Y-84205619D01*
X160695414Y-84205619D02*
X160790652Y-84205619D01*
X160790652Y-84205619D02*
X160933509Y-84253238D01*
X160933509Y-84253238D02*
X160981128Y-84300857D01*
X161933509Y-85205619D02*
X161362081Y-85205619D01*
X161647795Y-85205619D02*
X161647795Y-84205619D01*
X161647795Y-84205619D02*
X161552557Y-84348476D01*
X161552557Y-84348476D02*
X161457319Y-84443714D01*
X161457319Y-84443714D02*
X161362081Y-84491333D01*
X144627695Y-89243819D02*
X144627695Y-90053342D01*
X144627695Y-90053342D02*
X144675314Y-90148580D01*
X144675314Y-90148580D02*
X144722933Y-90196200D01*
X144722933Y-90196200D02*
X144818171Y-90243819D01*
X144818171Y-90243819D02*
X145008647Y-90243819D01*
X145008647Y-90243819D02*
X145103885Y-90196200D01*
X145103885Y-90196200D02*
X145151504Y-90148580D01*
X145151504Y-90148580D02*
X145199123Y-90053342D01*
X145199123Y-90053342D02*
X145199123Y-89243819D01*
X146199123Y-90243819D02*
X145627695Y-90243819D01*
X145913409Y-90243819D02*
X145913409Y-89243819D01*
X145913409Y-89243819D02*
X145818171Y-89386676D01*
X145818171Y-89386676D02*
X145722933Y-89481914D01*
X145722933Y-89481914D02*
X145627695Y-89529533D01*
X138200219Y-81472066D02*
X137724028Y-81805399D01*
X138200219Y-82043494D02*
X137200219Y-82043494D01*
X137200219Y-82043494D02*
X137200219Y-81662542D01*
X137200219Y-81662542D02*
X137247838Y-81567304D01*
X137247838Y-81567304D02*
X137295457Y-81519685D01*
X137295457Y-81519685D02*
X137390695Y-81472066D01*
X137390695Y-81472066D02*
X137533552Y-81472066D01*
X137533552Y-81472066D02*
X137628790Y-81519685D01*
X137628790Y-81519685D02*
X137676409Y-81567304D01*
X137676409Y-81567304D02*
X137724028Y-81662542D01*
X137724028Y-81662542D02*
X137724028Y-82043494D01*
X137200219Y-81138732D02*
X137200219Y-80519685D01*
X137200219Y-80519685D02*
X137581171Y-80853018D01*
X137581171Y-80853018D02*
X137581171Y-80710161D01*
X137581171Y-80710161D02*
X137628790Y-80614923D01*
X137628790Y-80614923D02*
X137676409Y-80567304D01*
X137676409Y-80567304D02*
X137771647Y-80519685D01*
X137771647Y-80519685D02*
X138009742Y-80519685D01*
X138009742Y-80519685D02*
X138104980Y-80567304D01*
X138104980Y-80567304D02*
X138152600Y-80614923D01*
X138152600Y-80614923D02*
X138200219Y-80710161D01*
X138200219Y-80710161D02*
X138200219Y-80995875D01*
X138200219Y-80995875D02*
X138152600Y-81091113D01*
X138152600Y-81091113D02*
X138104980Y-81138732D01*
X139888933Y-86719580D02*
X139841314Y-86767200D01*
X139841314Y-86767200D02*
X139698457Y-86814819D01*
X139698457Y-86814819D02*
X139603219Y-86814819D01*
X139603219Y-86814819D02*
X139460362Y-86767200D01*
X139460362Y-86767200D02*
X139365124Y-86671961D01*
X139365124Y-86671961D02*
X139317505Y-86576723D01*
X139317505Y-86576723D02*
X139269886Y-86386247D01*
X139269886Y-86386247D02*
X139269886Y-86243390D01*
X139269886Y-86243390D02*
X139317505Y-86052914D01*
X139317505Y-86052914D02*
X139365124Y-85957676D01*
X139365124Y-85957676D02*
X139460362Y-85862438D01*
X139460362Y-85862438D02*
X139603219Y-85814819D01*
X139603219Y-85814819D02*
X139698457Y-85814819D01*
X139698457Y-85814819D02*
X139841314Y-85862438D01*
X139841314Y-85862438D02*
X139888933Y-85910057D01*
X140222267Y-85814819D02*
X140841314Y-85814819D01*
X140841314Y-85814819D02*
X140507981Y-86195771D01*
X140507981Y-86195771D02*
X140650838Y-86195771D01*
X140650838Y-86195771D02*
X140746076Y-86243390D01*
X140746076Y-86243390D02*
X140793695Y-86291009D01*
X140793695Y-86291009D02*
X140841314Y-86386247D01*
X140841314Y-86386247D02*
X140841314Y-86624342D01*
X140841314Y-86624342D02*
X140793695Y-86719580D01*
X140793695Y-86719580D02*
X140746076Y-86767200D01*
X140746076Y-86767200D02*
X140650838Y-86814819D01*
X140650838Y-86814819D02*
X140365124Y-86814819D01*
X140365124Y-86814819D02*
X140269886Y-86767200D01*
X140269886Y-86767200D02*
X140222267Y-86719580D01*
X166036666Y-87948419D02*
X166036666Y-88662704D01*
X166036666Y-88662704D02*
X165989047Y-88805561D01*
X165989047Y-88805561D02*
X165893809Y-88900800D01*
X165893809Y-88900800D02*
X165750952Y-88948419D01*
X165750952Y-88948419D02*
X165655714Y-88948419D01*
X167036666Y-88948419D02*
X166465238Y-88948419D01*
X166750952Y-88948419D02*
X166750952Y-87948419D01*
X166750952Y-87948419D02*
X166655714Y-88091276D01*
X166655714Y-88091276D02*
X166560476Y-88186514D01*
X166560476Y-88186514D02*
X166465238Y-88234133D01*
D12*
%TO.C,R1*%
X158918264Y-99928000D02*
X157464136Y-99928000D01*
X158918264Y-101748000D02*
X157464136Y-101748000D01*
%TO.C,SCL*%
X154912000Y-100609400D02*
G75*
G02*
X151412000Y-100609400I-1750000J0D01*
G01*
X151412000Y-100609400D02*
G75*
G02*
X154912000Y-100609400I1750000J0D01*
G01*
%TO.C,R2*%
X158120164Y-94249100D02*
X156666036Y-94249100D01*
X158120164Y-96069100D02*
X156666036Y-96069100D01*
%TO.C,C2*%
X155382400Y-83636052D02*
X155382400Y-82213548D01*
X157202400Y-83636052D02*
X157202400Y-82213548D01*
%TO.C,GND*%
X170456800Y-106781600D02*
G75*
G02*
X166956800Y-106781600I-1750000J0D01*
G01*
X166956800Y-106781600D02*
G75*
G02*
X170456800Y-106781600I1750000J0D01*
G01*
%TO.C,C1*%
X165288400Y-83610652D02*
X165288400Y-82188148D01*
X167108400Y-83610652D02*
X167108400Y-82188148D01*
%TO.C,SDA*%
X153184800Y-92303600D02*
G75*
G02*
X149684800Y-92303600I-1750000J0D01*
G01*
X149684800Y-92303600D02*
G75*
G02*
X153184800Y-92303600I1750000J0D01*
G01*
%TO.C,3.3V*%
X148339600Y-84412700D02*
G75*
G02*
X144839600Y-84412700I-1750000J0D01*
G01*
X144839600Y-84412700D02*
G75*
G02*
X148339600Y-84412700I1750000J0D01*
G01*
%TO.C,D1*%
X134805800Y-85318800D02*
X134805800Y-89203800D01*
X134805800Y-89203800D02*
X137075800Y-89203800D01*
X137075800Y-89203800D02*
X137075800Y-85318800D01*
%TO.C,IC1*%
X160909700Y-80790800D02*
X160109700Y-80790800D01*
X160909700Y-80790800D02*
X161709700Y-80790800D01*
X160909700Y-83910800D02*
X160109700Y-83910800D01*
X160909700Y-83910800D02*
X161709700Y-83910800D01*
X162449700Y-84190800D02*
X161969700Y-84190800D01*
X162209700Y-83860800D01*
X162449700Y-84190800D01*
G36*
X162449700Y-84190800D02*
G01*
X161969700Y-84190800D01*
X162209700Y-83860800D01*
X162449700Y-84190800D01*
G37*
%TO.C,U1*%
X137785000Y-92934800D02*
X137785000Y-91199800D01*
X137785000Y-101279800D02*
X137785000Y-99304800D01*
X139760000Y-90959800D02*
X138085000Y-90959800D01*
X139760000Y-101279800D02*
X137785000Y-101279800D01*
X146130000Y-90959800D02*
X148105000Y-90959800D01*
X146130000Y-101279800D02*
X148105000Y-101279800D01*
X148105000Y-90959800D02*
X148105000Y-92934800D01*
X148105000Y-101279800D02*
X148105000Y-99304800D01*
X137785000Y-90959800D02*
X137545000Y-90629800D01*
X138025000Y-90629800D01*
X137785000Y-90959800D01*
G36*
X137785000Y-90959800D02*
G01*
X137545000Y-90629800D01*
X138025000Y-90629800D01*
X137785000Y-90959800D01*
G37*
%TO.C,R3*%
X135005400Y-80578336D02*
X135005400Y-82032464D01*
X136825400Y-80578336D02*
X136825400Y-82032464D01*
%TO.C,C3*%
X141661252Y-87549800D02*
X140238748Y-87549800D01*
X141661252Y-89369800D02*
X140238748Y-89369800D01*
%TO.C,J1*%
X168241200Y-88840800D02*
X169621200Y-88840800D01*
X168241200Y-90220800D02*
X168241200Y-88840800D01*
X168241200Y-91490800D02*
X168241200Y-99220800D01*
X168241200Y-91490800D02*
X171001200Y-91490800D01*
X168241200Y-99220800D02*
X171001200Y-99220800D01*
X171001200Y-91490800D02*
X171001200Y-99220800D01*
%TD*%
M02*
