%TF.GenerationSoftware,KiCad,Pcbnew,9.0.2*%
%TF.CreationDate,2025-05-24T10:18:39-07:00*%
%TF.ProjectId,sensor_eval_brd,73656e73-6f72-45f6-9576-616c5f627264,rev?*%
%TF.SameCoordinates,Original*%
%TF.FileFunction,Copper,L2,Bot*%
%TF.FilePolarity,Positive*%
%FSLAX46Y46*%
G04 Gerber Fmt 4.6, Leading zero omitted, Abs format (unit mm)*
G04 Created by KiCad (PCBNEW 9.0.2) date 2025-05-24 10:18:39*
%MOMM*%
%LPD*%
G01*
G04 APERTURE LIST*
%TA.AperFunction,ComponentPad*%
%ADD10C,2.800000*%
%TD*%
%TA.AperFunction,ComponentPad*%
%ADD11R,1.700000X1.700000*%
%TD*%
%TA.AperFunction,ComponentPad*%
%ADD12C,1.700000*%
%TD*%
%TA.AperFunction,ViaPad*%
%ADD13C,0.508000*%
%TD*%
%TA.AperFunction,Conductor*%
%ADD14C,0.508000*%
%TD*%
G04 APERTURE END LIST*
D10*
%TO.P,SCL,1,1*%
%TO.N,/SCL*%
X153162000Y-100609400D03*
%TD*%
%TO.P,GND,1,1*%
%TO.N,GND*%
X168706800Y-106781600D03*
%TD*%
%TO.P,SDA,1,1*%
%TO.N,/SDA*%
X151434800Y-92303600D03*
%TD*%
%TO.P,3.3V,1,1*%
%TO.N,/3.3V*%
X146589600Y-84412700D03*
%TD*%
D11*
%TO.P,J1,1,Pin_1*%
%TO.N,VCC*%
X169621200Y-90220800D03*
D12*
%TO.P,J1,2,Pin_2*%
%TO.N,GND*%
X169621200Y-92760800D03*
%TO.P,J1,3,Pin_3*%
%TO.N,/SDA*%
X169621200Y-95300800D03*
%TO.P,J1,4,Pin_4*%
%TO.N,/SCL*%
X169621200Y-97840800D03*
%TD*%
D13*
%TO.N,GND*%
X140436600Y-90322400D03*
X140436600Y-102082600D03*
X142945000Y-96119800D03*
X135940800Y-89538000D03*
X163271200Y-82346800D03*
X156286200Y-80340200D03*
X166192200Y-80264000D03*
X138404600Y-88468200D03*
%TO.N,/3.3V*%
X142113000Y-90195400D03*
X141605000Y-102158800D03*
%TD*%
D14*
%TO.N,/3.3V*%
X142113000Y-90195400D02*
X141605000Y-90703400D01*
X141605000Y-90703400D02*
X141605000Y-102158800D01*
%TD*%
%TA.AperFunction,Conductor*%
%TO.N,GND*%
G36*
X171011539Y-77731185D02*
G01*
X171057294Y-77783989D01*
X171068500Y-77835500D01*
X171068500Y-88960967D01*
X171048815Y-89028006D01*
X170996011Y-89073761D01*
X170926853Y-89083705D01*
X170863297Y-89054680D01*
X170845234Y-89035279D01*
X170839789Y-89028006D01*
X170828746Y-89013254D01*
X170828744Y-89013253D01*
X170828744Y-89013252D01*
X170713535Y-88927006D01*
X170713528Y-88927002D01*
X170578682Y-88876708D01*
X170578683Y-88876708D01*
X170519083Y-88870301D01*
X170519081Y-88870300D01*
X170519073Y-88870300D01*
X170519064Y-88870300D01*
X168723329Y-88870300D01*
X168723323Y-88870301D01*
X168663716Y-88876708D01*
X168528871Y-88927002D01*
X168528864Y-88927006D01*
X168413655Y-89013252D01*
X168413652Y-89013255D01*
X168327406Y-89128464D01*
X168327402Y-89128471D01*
X168277108Y-89263317D01*
X168270701Y-89322916D01*
X168270700Y-89322935D01*
X168270700Y-91118670D01*
X168270701Y-91118676D01*
X168277108Y-91178283D01*
X168327402Y-91313128D01*
X168327406Y-91313135D01*
X168413652Y-91428344D01*
X168413655Y-91428347D01*
X168528864Y-91514593D01*
X168528871Y-91514597D01*
X168663717Y-91564891D01*
X168663716Y-91564891D01*
X168670644Y-91565635D01*
X168723327Y-91571300D01*
X170519072Y-91571299D01*
X170578683Y-91564891D01*
X170713531Y-91514596D01*
X170828746Y-91428346D01*
X170845235Y-91406319D01*
X170901167Y-91364450D01*
X170970858Y-91359466D01*
X171032181Y-91392951D01*
X171065666Y-91454274D01*
X171068500Y-91480632D01*
X171068500Y-94650057D01*
X171048815Y-94717096D01*
X170996011Y-94762851D01*
X170926853Y-94772795D01*
X170863297Y-94743770D01*
X170834015Y-94706352D01*
X170805331Y-94650057D01*
X170776251Y-94592984D01*
X170768223Y-94581934D01*
X170651309Y-94421013D01*
X170500986Y-94270690D01*
X170329020Y-94145751D01*
X170139614Y-94049244D01*
X170139613Y-94049243D01*
X170139612Y-94049243D01*
X169937443Y-93983554D01*
X169937441Y-93983553D01*
X169937440Y-93983553D01*
X169776157Y-93958008D01*
X169727487Y-93950300D01*
X169514913Y-93950300D01*
X169466242Y-93958008D01*
X169304960Y-93983553D01*
X169102785Y-94049244D01*
X168913379Y-94145751D01*
X168741413Y-94270690D01*
X168591090Y-94421013D01*
X168466151Y-94592979D01*
X168369644Y-94782385D01*
X168303953Y-94984560D01*
X168270700Y-95194513D01*
X168270700Y-95407086D01*
X168303953Y-95617039D01*
X168369644Y-95819214D01*
X168466151Y-96008620D01*
X168591090Y-96180586D01*
X168741413Y-96330909D01*
X168913382Y-96455850D01*
X168922146Y-96460316D01*
X168972942Y-96508291D01*
X168989736Y-96576112D01*
X168967198Y-96642247D01*
X168922146Y-96681284D01*
X168913382Y-96685749D01*
X168741413Y-96810690D01*
X168591090Y-96961013D01*
X168466151Y-97132979D01*
X168369644Y-97322385D01*
X168303953Y-97524560D01*
X168270700Y-97734513D01*
X168270700Y-97947086D01*
X168303953Y-98157039D01*
X168369644Y-98359214D01*
X168466151Y-98548620D01*
X168591090Y-98720586D01*
X168741413Y-98870909D01*
X168913379Y-98995848D01*
X168913381Y-98995849D01*
X168913384Y-98995851D01*
X169102788Y-99092357D01*
X169304957Y-99158046D01*
X169514913Y-99191300D01*
X169514914Y-99191300D01*
X169727486Y-99191300D01*
X169727487Y-99191300D01*
X169937443Y-99158046D01*
X170139612Y-99092357D01*
X170329016Y-98995851D01*
X170350989Y-98979886D01*
X170500986Y-98870909D01*
X170500988Y-98870906D01*
X170500992Y-98870904D01*
X170651304Y-98720592D01*
X170651306Y-98720588D01*
X170651309Y-98720586D01*
X170776248Y-98548620D01*
X170776247Y-98548620D01*
X170776251Y-98548616D01*
X170834015Y-98435246D01*
X170881989Y-98384451D01*
X170949810Y-98367656D01*
X171015945Y-98390193D01*
X171059397Y-98444908D01*
X171068500Y-98491542D01*
X171068500Y-114924500D01*
X171048815Y-114991539D01*
X170996011Y-115037294D01*
X170944500Y-115048500D01*
X133855500Y-115048500D01*
X133788461Y-115028815D01*
X133742706Y-114976011D01*
X133731500Y-114924500D01*
X133731500Y-90629085D01*
X140850499Y-90629085D01*
X140850499Y-90629087D01*
X140850499Y-90629088D01*
X140850499Y-90777712D01*
X140850499Y-90777716D01*
X140850500Y-90783836D01*
X140850500Y-102233116D01*
X140879493Y-102378872D01*
X140879495Y-102378880D01*
X140936371Y-102516191D01*
X141018939Y-102639764D01*
X141018945Y-102639771D01*
X141124028Y-102744854D01*
X141124035Y-102744860D01*
X141247608Y-102827428D01*
X141247609Y-102827428D01*
X141247610Y-102827429D01*
X141384920Y-102884305D01*
X141530683Y-102913299D01*
X141530687Y-102913300D01*
X141530688Y-102913300D01*
X141679313Y-102913300D01*
X141679314Y-102913299D01*
X141825080Y-102884305D01*
X141962390Y-102827429D01*
X142085966Y-102744859D01*
X142191059Y-102639766D01*
X142273629Y-102516190D01*
X142330505Y-102378880D01*
X142359500Y-102233112D01*
X142359500Y-102084488D01*
X142359500Y-100484841D01*
X151261500Y-100484841D01*
X151261500Y-100733958D01*
X151261501Y-100733975D01*
X151294017Y-100980961D01*
X151358498Y-101221607D01*
X151453830Y-101451761D01*
X151453837Y-101451776D01*
X151578400Y-101667526D01*
X151730060Y-101865174D01*
X151730066Y-101865181D01*
X151906218Y-102041333D01*
X151906225Y-102041339D01*
X152103873Y-102192999D01*
X152319623Y-102317562D01*
X152319638Y-102317569D01*
X152418825Y-102358653D01*
X152549793Y-102412902D01*
X152790435Y-102477382D01*
X153037435Y-102509900D01*
X153037442Y-102509900D01*
X153286558Y-102509900D01*
X153286565Y-102509900D01*
X153533565Y-102477382D01*
X153774207Y-102412902D01*
X154004373Y-102317564D01*
X154220127Y-102192999D01*
X154417776Y-102041338D01*
X154593938Y-101865176D01*
X154745599Y-101667527D01*
X154870164Y-101451773D01*
X154965502Y-101221607D01*
X155029982Y-100980965D01*
X155062500Y-100733965D01*
X155062500Y-100484835D01*
X155029982Y-100237835D01*
X154965502Y-99997193D01*
X154870164Y-99767027D01*
X154745599Y-99551273D01*
X154593938Y-99353624D01*
X154593933Y-99353618D01*
X154417781Y-99177466D01*
X154417774Y-99177460D01*
X154220126Y-99025800D01*
X154004376Y-98901237D01*
X154004361Y-98901230D01*
X153774207Y-98805898D01*
X153533561Y-98741417D01*
X153286575Y-98708901D01*
X153286570Y-98708900D01*
X153286565Y-98708900D01*
X153037435Y-98708900D01*
X153037429Y-98708900D01*
X153037424Y-98708901D01*
X152790438Y-98741417D01*
X152549792Y-98805898D01*
X152319638Y-98901230D01*
X152319623Y-98901237D01*
X152103873Y-99025800D01*
X151906225Y-99177460D01*
X151906218Y-99177466D01*
X151730066Y-99353618D01*
X151730060Y-99353625D01*
X151578400Y-99551273D01*
X151453837Y-99767023D01*
X151453830Y-99767038D01*
X151358498Y-99997192D01*
X151294017Y-100237838D01*
X151261501Y-100484824D01*
X151261500Y-100484841D01*
X142359500Y-100484841D01*
X142359500Y-92179041D01*
X149534300Y-92179041D01*
X149534300Y-92428158D01*
X149534301Y-92428175D01*
X149566817Y-92675161D01*
X149631298Y-92915807D01*
X149726630Y-93145961D01*
X149726637Y-93145976D01*
X149851200Y-93361726D01*
X150002860Y-93559374D01*
X150002866Y-93559381D01*
X150179018Y-93735533D01*
X150179025Y-93735539D01*
X150376673Y-93887199D01*
X150592423Y-94011762D01*
X150592438Y-94011769D01*
X150682909Y-94049243D01*
X150822593Y-94107102D01*
X151063235Y-94171582D01*
X151310235Y-94204100D01*
X151310242Y-94204100D01*
X151559358Y-94204100D01*
X151559365Y-94204100D01*
X151806365Y-94171582D01*
X152047007Y-94107102D01*
X152277173Y-94011764D01*
X152492927Y-93887199D01*
X152690576Y-93735538D01*
X152866738Y-93559376D01*
X153018399Y-93361727D01*
X153142964Y-93145973D01*
X153238302Y-92915807D01*
X153302782Y-92675165D01*
X153335300Y-92428165D01*
X153335300Y-92179035D01*
X153302782Y-91932035D01*
X153238302Y-91691393D01*
X153142964Y-91461227D01*
X153123981Y-91428348D01*
X153018399Y-91245473D01*
X152866739Y-91047825D01*
X152866733Y-91047818D01*
X152690581Y-90871666D01*
X152690574Y-90871660D01*
X152492926Y-90720000D01*
X152277176Y-90595437D01*
X152277161Y-90595430D01*
X152047007Y-90500098D01*
X151984413Y-90483326D01*
X151806365Y-90435618D01*
X151806364Y-90435617D01*
X151806361Y-90435617D01*
X151559375Y-90403101D01*
X151559370Y-90403100D01*
X151559365Y-90403100D01*
X151310235Y-90403100D01*
X151310229Y-90403100D01*
X151310224Y-90403101D01*
X151063238Y-90435617D01*
X150822592Y-90500098D01*
X150592438Y-90595430D01*
X150592423Y-90595437D01*
X150376673Y-90720000D01*
X150179025Y-90871660D01*
X150179018Y-90871666D01*
X150002866Y-91047818D01*
X150002860Y-91047825D01*
X149851200Y-91245473D01*
X149726637Y-91461223D01*
X149726630Y-91461238D01*
X149631298Y-91691392D01*
X149566817Y-91932038D01*
X149534301Y-92179024D01*
X149534300Y-92179041D01*
X142359500Y-92179041D01*
X142359500Y-91067285D01*
X142379185Y-91000246D01*
X142395815Y-90979608D01*
X142593963Y-90781460D01*
X142593966Y-90781459D01*
X142699059Y-90676366D01*
X142781629Y-90552790D01*
X142838505Y-90415480D01*
X142867500Y-90269712D01*
X142867500Y-90121088D01*
X142838505Y-89975320D01*
X142781629Y-89838010D01*
X142699059Y-89714434D01*
X142699054Y-89714428D01*
X142593971Y-89609345D01*
X142593964Y-89609339D01*
X142470391Y-89526771D01*
X142333080Y-89469895D01*
X142333072Y-89469893D01*
X142187316Y-89440900D01*
X142187312Y-89440900D01*
X142038688Y-89440900D01*
X142038683Y-89440900D01*
X141892927Y-89469893D01*
X141892919Y-89469895D01*
X141755608Y-89526771D01*
X141632035Y-89609339D01*
X141632034Y-89609340D01*
X141579488Y-89661887D01*
X141526941Y-89714434D01*
X141526939Y-89714436D01*
X141018943Y-90222430D01*
X141018942Y-90222431D01*
X140936372Y-90346007D01*
X140936366Y-90346018D01*
X140879496Y-90483316D01*
X140879493Y-90483326D01*
X140850499Y-90629085D01*
X133731500Y-90629085D01*
X133731500Y-84288141D01*
X144689100Y-84288141D01*
X144689100Y-84537258D01*
X144689101Y-84537275D01*
X144721617Y-84784261D01*
X144786098Y-85024907D01*
X144881430Y-85255061D01*
X144881437Y-85255076D01*
X145006000Y-85470826D01*
X145157660Y-85668474D01*
X145157666Y-85668481D01*
X145333818Y-85844633D01*
X145333825Y-85844639D01*
X145531473Y-85996299D01*
X145747223Y-86120862D01*
X145747238Y-86120869D01*
X145846425Y-86161953D01*
X145977393Y-86216202D01*
X146218035Y-86280682D01*
X146465035Y-86313200D01*
X146465042Y-86313200D01*
X146714158Y-86313200D01*
X146714165Y-86313200D01*
X146961165Y-86280682D01*
X147201807Y-86216202D01*
X147431973Y-86120864D01*
X147647727Y-85996299D01*
X147845376Y-85844638D01*
X148021538Y-85668476D01*
X148173199Y-85470827D01*
X148297764Y-85255073D01*
X148393102Y-85024907D01*
X148457582Y-84784265D01*
X148490100Y-84537265D01*
X148490100Y-84288135D01*
X148457582Y-84041135D01*
X148393102Y-83800493D01*
X148297764Y-83570327D01*
X148173199Y-83354573D01*
X148021538Y-83156924D01*
X148021533Y-83156918D01*
X147845381Y-82980766D01*
X147845374Y-82980760D01*
X147647726Y-82829100D01*
X147431976Y-82704537D01*
X147431961Y-82704530D01*
X147201807Y-82609198D01*
X146961161Y-82544717D01*
X146714175Y-82512201D01*
X146714170Y-82512200D01*
X146714165Y-82512200D01*
X146465035Y-82512200D01*
X146465029Y-82512200D01*
X146465024Y-82512201D01*
X146218038Y-82544717D01*
X145977392Y-82609198D01*
X145747238Y-82704530D01*
X145747223Y-82704537D01*
X145531473Y-82829100D01*
X145333825Y-82980760D01*
X145333818Y-82980766D01*
X145157666Y-83156918D01*
X145157660Y-83156925D01*
X145006000Y-83354573D01*
X144881437Y-83570323D01*
X144881430Y-83570338D01*
X144786098Y-83800492D01*
X144721617Y-84041138D01*
X144689101Y-84288124D01*
X144689100Y-84288141D01*
X133731500Y-84288141D01*
X133731500Y-77835500D01*
X133751185Y-77768461D01*
X133803989Y-77722706D01*
X133855500Y-77711500D01*
X170944500Y-77711500D01*
X171011539Y-77731185D01*
G37*
%TD.AperFunction*%
%TD*%
M02*
